<?xml version="1.0" standalone="no"?>
<!DOCTYPE svg PUBLIC "-//W3C//DTD SVG 20010904//EN"
 "http://www.w3.org/TR/2001/REC-SVG-20010904/DTD/svg10.dtd">
<svg version="1.0" xmlns="http://www.w3.org/2000/svg"
 width="74.000000pt" height="74.000000pt" viewBox="0 0 74.000000 74.000000"
 preserveAspectRatio="xMidYMid meet">
<metadata>
Created by potrace 1.11, written by Peter Selinger 2001-2013
</metadata>
<g transform="translate(0.000000,74.000000) scale(0.100000,-0.100000)"
fill="#000000" stroke="none">
<path d="M380 633 c0 -7 -7 -10 -17 -6 -12 5 -14 3 -8 -8 6 -11 5 -11 -4 -3
-10 9 -19 8 -39 -2 -15 -8 -33 -14 -39 -14 -7 0 -13 -5 -13 -11 0 -5 -4 -7
-10 -4 -5 3 -30 -13 -56 -37 -54 -50 -82 -97 -86 -146 -1 -7 -6 -11 -13 -9
-10 4 -11 -23 -6 -101 1 -7 6 -10 11 -7 5 3 10 -2 10 -12 0 -10 7 -29 16 -41
8 -12 12 -22 8 -22 -4 0 2 -9 13 -19 12 -11 23 -24 24 -28 2 -5 23 -24 46 -42
43 -34 43 -34 158 -36 63 -1 115 2 115 7 0 4 7 8 15 8 9 0 28 11 43 25 23 22
25 27 12 35 -8 5 -10 10 -5 10 6 0 -2 11 -17 24 -15 12 -24 26 -21 30 4 4 0 4
-10 0 -9 -3 -17 -10 -17 -14 0 -11 -56 -29 -95 -32 -39 -2 -105 12 -105 23 0
5 -6 9 -14 9 -15 0 -59 63 -63 90 -9 57 1 130 18 130 5 0 9 6 9 13 0 19 66 59
107 64 21 2 43 6 50 8 7 2 15 0 18 -6 4 -5 10 -7 15 -4 5 3 25 -4 45 -15 l36
-20 8 23 c5 13 17 31 25 40 15 15 15 18 -5 36 -12 11 -41 25 -65 32 -24 8 -44
17 -44 21 0 4 -7 5 -16 1 -9 -3 -20 0 -25 8 -6 10 -9 10 -9 2z"/>
<path d="M560 531 c-8 -10 -16 -24 -18 -32 -2 -8 -8 -16 -13 -17 -5 -2 -7 -8
-3 -13 3 -5 1 -9 -4 -9 -5 0 -14 -11 -20 -24 -11 -24 -12 -24 -41 -10 -17 9
-35 13 -41 9 -5 -3 -10 -2 -10 4 0 7 -8 7 -25 1 -14 -5 -25 -7 -25 -4 0 14
-32 -29 -45 -59 -13 -31 -12 -38 6 -75 27 -54 93 -71 142 -37 25 18 50 9 65
-23 7 -15 25 -42 40 -60 l28 -34 25 39 c43 65 58 115 55 184 -3 68 -28 131
-65 162 -26 21 -32 20 -51 -2z"/>
</g>
</svg>
